<?xml version="1.0" encoding="iso-8859-1"?>
<!-- Generator: Adobe Illustrator 19.0.0, SVG Export Plug-In . SVG Version: 6.00 Build 0)  -->
<svg version="1.1" id="Capa_1" xmlns="http://www.w3.org/2000/svg" xmlns:xlink="http://www.w3.org/1999/xlink" x="0px" y="0px"
	 viewBox="0 0 512 512" style="enable-background:new 0 0 512 512;" xml:space="preserve">
<g>
	
		<linearGradient id="SVGID_1_" gradientUnits="userSpaceOnUse" x1="-42.4636" y1="606.7572" x2="21.2464" y2="606.7572" gradientTransform="matrix(8.5419 0 0 -8.5419 369.5521 5438.8447)">
		<stop  offset="0" style="stop-color:#B24592"/>
		<stop  offset="1" style="stop-color:#F15F79"/>
	</linearGradient>
	<path style="fill:url(#SVGID_1_);" d="M132.484,188.434c-1.538,1.794-3.075,3.588-4.527,5.467l-2.99,3.673l-5.638,7.431
		l-2.563,3.844c-1.452,2.306-2.904,4.527-4.271,6.833c-0.342,0.615-0.709,1.213-1.11,1.794l0,0l-1.025,1.965
		c-1.367,2.477-2.648,4.954-3.929,7.431c-0.513,0.854-0.94,1.794-1.452,2.733c-1.708,3.502-3.331,7.004-4.783,10.677l-0.513,1.11
		c-1.367,3.331-2.648,6.748-3.758,10.165c-0.265,0.666-0.495,1.358-0.683,2.05c-1.196,3.502-2.306,7.175-3.331,10.763
		c0.009,0.196,0.009,0.401,0,0.598c-2.076,7.867-3.673,15.854-4.783,23.917c0,0.854,0,1.708,0,2.648c0,3.075-0.683,6.15-0.94,9.311
		c0,1.025,0,1.965,0,2.99c-1.025,4.271-1.025,8.2-1.025,12.215s0,7.944,0.427,11.873c0,1.025,0,1.965,0,2.99
		c0,3.16,0.598,6.236,0.94,9.311c0,0.94,0,1.794,0,2.648c1.11,8.064,2.708,16.05,4.783,23.917c0.009,0.196,0.009,0.401,0,0.598
		c1.025,3.588,2.135,7.261,3.331,10.763c0.188,0.692,0.419,1.384,0.683,2.05c1.11,3.417,2.392,6.833,3.758,10.165l0.513,1.11
		c1.452,3.673,3.075,7.175,4.783,10.677c0.513,0.94,0.94,1.879,1.452,2.733c1.281,2.477,2.563,4.954,3.929,7.431l1.025,1.965l0,0
		c0.401,0.581,0.769,1.179,1.11,1.794c1.367,2.306,2.819,4.527,4.271,6.833l3.16,4.186l5.552,7.773l2.99,3.673
		c1.452,1.879,2.99,3.673,4.527,5.467l2.819,3.331c2.477,2.733,5.04,5.467,7.602,8.029l0.769,0.769
		c2.648,2.563,5.296,5.04,8.029,7.431l1.623,1.452c28.701,24.857,64.021,40.83,101.648,45.955h1.794
		c3.331,0,6.663,0.769,10.079,1.025h2.733c4.015,0,8.029,0,12.044,0s8.029,0,12.044,0h2.733c3.417,0,6.748-0.598,10.079-1.025h1.794
		c37.636-5.245,72.922-21.329,101.563-46.297l1.623-1.452c2.733-2.392,5.381-4.869,8.029-7.431l0.769-0.769
		c2.563-2.563,5.125-5.296,7.602-8.029l2.819-3.331c1.538-1.794,3.075-3.588,4.527-5.467l2.99-3.673l5.809-7.431l2.563-3.844
		c1.452-2.306,2.904-4.527,4.271-6.833c0.342-0.615,0.709-1.213,1.11-1.794l0,0l1.025-1.965c1.367-2.477,2.648-4.954,3.929-7.431
		c0.513-0.854,0.94-1.794,1.452-2.733c1.708-3.502,3.331-7.004,4.783-10.677l0.513-1.11c1.367-3.331,2.648-6.748,3.758-10.165
		c0.265-0.666,0.495-1.358,0.683-2.05c1.196-3.502,2.306-7.175,3.331-10.763c-0.009-0.196-0.009-0.401,0-0.598
		c2.076-7.867,3.673-15.854,4.783-23.917c0-0.854,0-1.708,0-2.648c0-3.075,0.683-6.15,0.94-9.311c0-1.025,0-1.965,0-2.99
		c0-3.929,0-7.858,0-11.873c0-4.015,0-7.944,0-11.873c0-1.025,0-1.965,0-2.99c0-3.16-0.598-6.236-0.94-9.311c0-0.94,0-1.794,0-2.648
		c-1.11-8.064-2.708-16.05-4.783-23.917c-0.009-0.196-0.009-0.401,0-0.598c-1.025-3.588-2.135-7.261-3.331-10.763
		c-0.188-0.692-0.419-1.384-0.683-2.05c-1.11-3.417-2.392-6.833-3.758-10.165l-0.513-1.11c-1.452-3.673-3.075-7.175-4.783-10.677
		c-0.513-0.94-0.94-1.879-1.452-2.733c-1.281-2.477-2.563-4.954-3.929-7.431l-1.025-1.965l0,0c-0.401-0.581-0.769-1.179-1.11-1.794
		c-1.367-2.306-2.819-4.527-4.271-6.833l-2.563-4.527l-5.552-7.773l-2.99-3.331c-1.452-1.879-2.99-3.673-4.527-5.467l-2.819-3.331
		c-2.477-2.733-5.04-5.467-7.602-8.029l-0.769-0.769c-2.648-2.563-5.296-5.04-8.029-7.431l-1.879-1.452
		c-24.481-21.201-53.822-36.021-85.419-43.136V93.961c0-4.715-3.827-8.542-8.542-8.542h-25.626V0h-17.084v85.419h-25.626
		c-4.715,0-8.542,3.827-8.542,8.542v30.324c-31.596,7.115-60.938,21.936-85.419,43.136l-1.623,1.452
		c-2.733,2.392-5.381,4.869-8.029,7.431l-0.769,0.769c-2.563,2.563-5.125,5.296-7.602,8.029L132.484,188.434z M143.674,201.588
		c2.904-3.502,5.894-6.748,9.054-9.994c0.769-0.769,1.452-1.708,2.306-2.477c3.784-3.835,7.773-7.457,11.959-10.848
		c2.733-2.306,5.723-4.442,8.542-6.577c1.452-1.11,2.819-2.221,4.271-3.161c3.16-2.221,6.492-4.271,9.823-6.236l3.929-2.392
		c3.331-1.879,6.833-3.588,10.336-5.296c1.367-0.683,2.819-1.452,4.271-2.05c3.417-1.538,6.833-2.904,10.336-4.271l5.211-1.879
		c3.246-1.136,6.577-2.161,9.994-3.075l2.904-0.769c-0.513,0.598-0.94,1.196-1.452,1.708s-1.794,2.135-2.648,3.331
		c-0.854,1.196-1.708,2.221-2.563,3.331c-0.854,1.11-1.794,2.392-2.648,3.673c-0.854,1.281-1.623,2.392-2.392,3.673
		s-1.708,2.648-2.477,4.015c-0.769,1.367-1.623,2.648-2.392,4.015l-2.306,4.442c-0.769,1.367-1.452,2.819-2.221,4.356
		c-0.769,1.538-1.452,3.075-2.221,4.698l-2.05,4.698l-2.05,5.125c-0.683,1.623-1.281,3.246-1.879,4.954
		c-0.598,1.708-1.367,3.588-1.965,5.467c-0.598,1.879-1.196,3.417-1.708,5.211c-0.513,1.794-1.281,3.929-1.794,5.894l-0.769,2.392
		H134.62c1.965-2.819,4.1-5.552,6.236-8.542C141.795,204.065,142.649,202.784,143.674,201.588z M339.454,146.408l5.211,1.879
		c3.502,1.367,6.919,2.733,10.336,4.271c1.452,0.598,2.904,1.367,4.271,2.05c3.502,1.708,7.004,3.417,10.336,5.296l3.929,2.392
		c3.331,1.965,6.663,4.015,9.823,6.236c1.452,0.94,2.819,2.05,4.271,3.161c2.904,2.135,5.894,4.271,8.542,6.577
		c4.186,3.391,8.175,7.013,11.959,10.848c0.854,0.769,1.538,1.708,2.306,2.477c3.16,3.246,6.15,6.492,9.054,9.994
		c1.025,1.196,1.879,2.477,2.819,3.673c2.135,2.733,4.271,5.467,6.236,8.542H362.09l-0.769-2.392
		c-0.513-1.965-1.196-3.929-1.794-5.894s-1.11-3.502-1.708-5.211c-0.598-1.708-1.281-3.673-1.965-5.467
		c-0.683-1.794-1.196-3.331-1.879-4.954l-2.05-5.125l-1.965-4.954c-0.769-1.623-1.452-3.161-2.221-4.698s-1.452-2.99-2.221-4.356
		l-2.306-4.442c-0.769-1.367-1.538-2.733-2.392-4.015s-1.623-2.733-2.477-4.015c-0.854-1.281-1.538-2.477-2.392-3.673
		s-1.708-2.477-2.648-3.673c-0.94-1.196-1.623-2.306-2.563-3.331c-0.94-1.025-1.794-2.221-2.648-3.331
		c-0.854-1.11-0.94-1.11-1.452-1.708l2.904,0.769C332.902,144.298,336.208,145.323,339.454,146.408z M453.403,264.798
		c1.367,4.613,2.648,9.311,3.673,14.094c0,1.025,0.427,2.135,0.598,3.246c0.94,5.04,1.794,10.165,2.392,15.461
		c-0.043,0.342-0.043,0.683,0,1.025c0,2.904,0,5.979,0.427,8.542h-84.906c0-4.015,0-7.944-0.513-11.873v-6.15
		c-0.513-7.602-1.196-15.034-2.05-22.38c0-1.538,0-2.904-0.598-4.442c-0.854-5.809-1.708-11.702-2.733-17.084
		c-0.427-2.392-0.94-4.783-1.367-7.09s-0.94-5.125-1.538-7.602h72.862c2.477,4.527,4.698,9.225,6.748,14.009
		c0.453,0.888,0.846,1.802,1.196,2.733c1.879,4.442,3.502,8.542,5.04,13.667C452.463,262.236,453.061,263.431,453.403,264.798z
		 M460.065,334.671c-0.598,5.296-1.452,10.421-2.392,15.461c0,1.11,0,2.221-0.598,3.246c-1.025,4.783-2.306,9.481-3.673,14.094
		c0,1.281-0.683,2.477-1.11,3.673c-1.538,4.698-3.16,9.225-5.04,13.667c-0.35,0.931-0.743,1.845-1.196,2.733
		c-2.05,4.783-4.271,9.482-6.748,14.009h-72.862c0.598-2.477,1.025-5.04,1.538-7.602c0.513-2.563,0.94-4.698,1.367-7.09
		c1.025-5.638,1.879-11.532,2.733-17.084c0-1.538,0-2.904,0.598-4.442c0.854-7.346,1.538-14.777,2.05-22.38v-6.15
		c0-3.929,0-7.858,0.513-11.873h85.76c0,2.99,0,6.065-0.427,8.542c-0.222,0.342-0.393,0.717-0.513,1.11L460.065,334.671
		L460.065,334.671z M419.577,430.511c-2.904,3.502-5.894,6.748-9.054,9.994c-0.769,0.769-1.452,1.708-2.306,2.477
		c-3.784,3.835-7.773,7.457-11.959,10.848c-2.733,2.306-5.723,4.442-8.542,6.577c-1.452,1.11-2.819,2.221-4.271,3.16
		c-3.16,2.221-6.492,4.271-9.823,6.236l-3.929,2.392c-3.331,1.879-6.833,3.588-10.336,5.296c-1.367,0.683-2.819,1.452-4.271,2.05
		c-3.417,1.538-6.833,2.904-10.336,4.271l-5.211,1.879c-3.246,1.136-6.577,2.161-9.994,3.075l-2.904,0.769
		c0.513-0.598,0.94-1.196,1.452-1.708c0.513-0.513,1.794-2.135,2.648-3.331c0.854-1.196,1.708-2.221,2.563-3.331
		c0.854-1.11,1.794-2.392,2.648-3.673c0.854-1.281,1.623-2.392,2.392-3.673c0.769-1.281,1.708-2.648,2.477-4.015
		s1.623-2.648,2.392-4.015l2.306-4.442c0.769-1.367,1.452-2.819,2.221-4.356c0.769-1.538,1.452-3.075,2.221-4.698l2.05-4.698
		l2.05-5.125c0.683-1.623,1.281-3.246,1.879-4.954c0.598-1.708,1.367-3.588,1.965-5.467s1.196-3.417,1.708-5.211
		c0.513-1.794,1.281-3.929,1.794-5.894l0.769-2.392h66.541c-1.965,2.819-4.1,5.552-6.236,8.542
		C421.456,428.033,420.602,429.315,419.577,430.511z M223.797,485.691l-5.211-1.879c-3.502-1.367-6.919-2.733-10.336-4.271
		c-1.452-0.598-2.904-1.367-4.271-2.05c-3.502-1.708-7.004-3.417-10.336-5.296l-3.929-2.392c-3.331-1.965-6.663-4.015-9.823-6.236
		c-1.452-0.94-2.819-2.05-4.271-3.16c-2.904-2.135-5.894-4.271-8.542-6.577c-4.186-3.391-8.175-7.013-11.959-10.848
		c-0.854-0.769-1.538-1.708-2.306-2.477c-3.161-3.246-6.15-6.492-9.054-9.994c-1.025-1.196-1.879-2.477-2.819-3.673
		c-2.135-2.733-4.271-5.467-6.236-8.542h66.541l0.769,2.392c0.513,1.965,1.196,3.929,1.794,5.894
		c0.598,1.965,1.11,3.502,1.708,5.211c0.598,1.708,1.281,3.673,1.965,5.467s1.196,3.331,1.879,4.954l2.05,5.125l1.879,5.381
		c0.769,1.623,1.452,3.16,2.221,4.698c0.769,1.538,1.452,2.99,2.221,4.356l2.306,4.442c0.769,1.367,1.538,2.733,2.392,4.015
		c0.854,1.281,1.623,2.733,2.477,4.015c0.854,1.281,1.538,2.477,2.392,3.673c0.854,1.196,1.708,2.477,2.648,3.673
		c0.94,1.196,1.623,2.306,2.563,3.331c0.94,1.025,1.794,2.221,2.648,3.331c0.854,1.11,0.94,1.11,1.452,1.708l-2.904-0.769
		C230.349,487.997,227.043,486.827,223.797,485.691z M109.848,367.301c-1.367-4.613-2.648-9.311-3.673-14.094
		c0-1.025-0.427-2.135-0.598-3.246c-0.94-5.04-1.794-10.165-2.392-15.461c0.043-0.342,0.043-0.683,0-1.025c0-2.904,0-5.979,0-8.542
		h84.479c0,4.015,0,7.944,0.513,11.873v6.15c0.513,7.602,1.196,15.034,2.05,22.38c0,1.538,0.427,2.904,0.598,4.442
		c0.854,5.809,1.708,11.702,2.733,17.084c0.427,2.392,0.94,4.783,1.367,7.09c0.427,2.306,0.94,5.125,1.538,7.602h-72.521
		c-2.477-4.527-4.698-9.225-6.748-14.009c-0.453-0.888-0.846-1.802-1.196-2.733c-1.879-4.442-3.502-8.542-5.04-13.667
		C110.788,369.863,110.19,368.667,109.848,367.301z M103.186,297.428c0.598-5.296,1.452-10.421,2.392-15.461
		c0-1.11,0-2.221,0.598-3.246c1.025-4.783,2.306-9.481,3.673-14.094c0-1.281,0.683-2.477,1.11-3.673
		c1.538-4.698,3.16-9.225,5.04-13.667c0.35-0.931,0.743-1.845,1.196-2.733c2.05-4.783,4.271-9.481,6.748-14.009h72.862
		c-0.598,2.477-1.025,5.04-1.538,7.602s-0.94,4.698-1.367,7.09c-1.025,5.638-1.879,11.532-2.733,17.084
		c0,1.538-0.427,2.904-0.598,4.442c-0.854,7.346-1.538,14.777-2.05,22.38v6.15c0,3.929-0.427,7.859-0.512,11.873h-85.419
		c0-2.99,0-6.065,0-8.542c0.256-0.342,0.453-0.709,0.598-1.11L103.186,297.428z M214.486,401.468
		c-0.854-3.502-1.623-7.004-2.392-10.592c0-1.965-0.854-3.929-1.196-5.979c-1.281-6.833-2.392-13.838-3.246-21.013v-2.477
		c-0.769-6.406-1.367-12.813-1.708-19.305c0-2.477,0-4.954,0-7.431c0-2.477,0-6.748,0-10.079h152.558c0,3.331,0,6.748,0,10.079
		c0,3.331,0,4.954,0,7.431c0,6.492-0.94,12.898-1.708,19.305v2.477c-0.854,7.175-1.965,14.18-3.246,21.013
		c0,2.05-0.854,4.015-1.196,5.979c-0.769,3.588-1.538,7.09-2.392,10.592H214.486z M348.765,230.631
		c0.854,3.502,1.623,7.004,2.392,10.592c0,1.965,0.854,3.929,1.196,5.979c1.281,6.833,2.392,13.838,3.246,21.013v2.477
		c0.769,6.406,1.367,12.813,1.708,19.305c0,2.477,0,4.954,0,7.431c0,2.477,0,6.748,0,10.079H204.749c0-3.331,0-6.748,0-10.079
		c0-3.331,0-4.954,0-7.431c0-6.492,0.94-12.898,1.708-19.305v-2.477c0.854-7.175,1.965-14.18,3.246-21.013
		c0-2.05,0.854-4.015,1.196-5.979c0.769-3.588,1.538-7.09,2.392-10.592L348.765,230.631z M276.842,495.429l-1.538-0.427l-3.16-0.683
		l-1.879-0.683l-2.819-1.11l-1.879-1.025l-2.733-1.452l-1.965-1.367l-2.563-1.794L256,484.922l-2.477-2.221l-1.879-1.879
		c-0.854-0.769-1.623-1.623-2.477-2.563l-1.708-2.135l-2.306-2.904l-1.794-2.392l-2.392-3.331l-1.708-2.563
		c-0.769-1.196-1.452-2.477-2.221-3.758c-0.589-0.88-1.136-1.794-1.623-2.733c-0.769-1.367-1.538-2.733-2.221-4.186l-1.538-2.819
		c-0.769-1.538-1.538-3.246-2.306-4.869c-0.769-1.623-0.769-1.794-1.196-2.648l-2.563-6.065c-0.248-0.7-0.53-1.384-0.854-2.05
		c-1.025-2.819-2.135-5.723-3.161-8.542v-0.769c-0.854-2.563-1.708-5.211-2.477-7.858h125.138c-0.769,2.648-1.623,5.296-2.477,7.858
		l-0.342,0.598c-1.025,2.904-2.135,5.809-3.16,8.542c-0.325,0.666-0.606,1.35-0.854,2.05l-2.563,6.065
		c-0.427,0.854-0.854,1.794-1.196,2.648c-0.342,0.854-1.538,3.331-2.306,4.869l-1.538,2.819c-0.683,1.452-1.452,2.819-2.221,4.186
		c-0.487,0.94-1.034,1.854-1.623,2.733c-0.769,1.281-1.452,2.563-2.221,3.758l-1.708,2.563l-2.392,3.331l-1.794,2.392l-2.306,2.904
		l-1.879,2.135c-0.854,0.94-1.623,1.794-2.477,2.563l-1.879,1.879l-2.477,2.221l-1.965,1.623l-2.563,1.794l-1.965,1.367
		l-2.733,1.452l-1.879,1.025l-2.819,1.11l-1.879,0.683l-3.16,0.683l-1.538,0.427c-3.169,0.453-6.398,0.453-9.567,0L276.842,495.429z
		 M286.409,136.67l1.538,0.427l3.16,0.683l1.879,0.683l2.819,1.11l1.879,1.025l2.733,1.452l1.965,1.367l2.563,1.794l1.965,1.623
		l2.477,2.221c0.598,0.598,1.281,1.196,1.879,1.879s1.623,1.623,2.477,2.563l1.879,2.135l2.306,2.904l1.794,2.392l2.392,3.331
		c0.513,0.854,1.11,1.708,1.708,2.563c0.598,0.854,1.452,2.477,2.221,3.758c0.589,0.88,1.136,1.794,1.623,2.733
		c0.769,1.367,1.538,2.733,2.221,4.186l1.538,2.819c0.769,1.538,1.538,3.246,2.306,4.869c0.769,1.623,0.769,1.794,1.196,2.648
		l2.563,6.065c0.248,0.7,0.53,1.384,0.854,2.05c1.025,2.819,2.135,5.723,3.16,8.542v0.769c0.854,2.563,1.708,5.211,2.477,7.859
		H219.014c0.769-2.648,1.623-5.296,2.477-7.859l0.342-0.256c1.025-2.904,2.135-5.808,3.16-8.542c0.325-0.666,0.606-1.35,0.854-2.05
		l2.563-6.065c0-0.854,0.854-1.794,1.196-2.648c0.342-0.854,1.538-3.331,2.306-4.869l1.538-2.819
		c0.683-1.452,1.452-2.819,2.221-4.186c0.453-1.025,0.965-2.024,1.538-2.99c0.769-1.281,1.452-2.563,2.221-3.758l1.708-2.563
		l2.392-3.331l1.794-2.392l2.306-2.904l1.879-2.135c0.854-0.94,1.623-1.794,2.477-2.563c0.854-0.769,1.281-1.281,1.879-1.879
		l2.477-2.221l1.965-1.623l2.563-1.794l1.965-1.367l2.733-1.452l1.879-1.025l2.819-1.11l1.879-0.683l3.16-0.683l1.538-0.427
		c3.169-0.453,6.398-0.453,9.567,0L286.409,136.67z M256,102.503h51.251v17.084H256L256,102.503L256,102.503z"/>
	
		<linearGradient id="SVGID_2_" gradientUnits="userSpaceOnUse" x1="-42.4636" y1="621.7272" x2="21.2464" y2="621.7272" gradientTransform="matrix(8.5419 0 0 -8.5419 369.5521 5438.8447)">
		<stop  offset="0" style="stop-color:#B24592"/>
		<stop  offset="1" style="stop-color:#F15F79"/>
	</linearGradient>
	<path style="fill:url(#SVGID_2_);" d="M435.379,162.296c0,4.715,3.827,8.542,8.542,8.542c4.715,0,8.542-3.827,8.542-8.542
		c0-14.154,11.472-25.626,25.626-25.626c4.715,0,8.542-3.827,8.542-8.542c0-4.715-3.827-8.542-8.542-8.542
		c-14.154,0-25.626-11.472-25.626-25.626c0-4.715-3.827-8.542-8.542-8.542c-4.715,0-8.542,3.827-8.542,8.542
		c0,14.154-11.472,25.626-25.626,25.626c-4.715,0-8.542,3.827-8.542,8.542c0,4.715,3.827,8.542,8.542,8.542
		C423.908,136.67,435.379,148.142,435.379,162.296z M443.921,119.586c2.426,3.237,5.305,6.116,8.542,8.542
		c-3.237,2.426-6.116,5.305-8.542,8.542c-2.426-3.237-5.304-6.116-8.542-8.542C438.617,125.702,441.495,122.824,443.921,119.586z"/>
	
		<linearGradient id="SVGID_3_" gradientUnits="userSpaceOnUse" x1="-42.4636" y1="582.7272" x2="21.2464" y2="582.7272" gradientTransform="matrix(8.5419 0 0 -8.5419 369.5521 5438.8447)">
		<stop  offset="0" style="stop-color:#B24592"/>
		<stop  offset="1" style="stop-color:#F15F79"/>
	</linearGradient>
	<path style="fill:url(#SVGID_3_);" d="M59.537,427.094c0,14.154-11.472,25.626-25.626,25.626c-4.715,0-8.542,3.827-8.542,8.542
		c0,4.715,3.827,8.542,8.542,8.542c14.154,0,25.626,11.472,25.626,25.626c0,4.715,3.827,8.542,8.542,8.542s8.542-3.827,8.542-8.542
		c0-14.154,11.472-25.626,25.626-25.626c4.715,0,8.542-3.827,8.542-8.542c0-4.715-3.827-8.542-8.542-8.542
		c-14.154,0-25.626-11.472-25.626-25.626c0-4.715-3.827-8.542-8.542-8.542C63.364,418.552,59.537,422.379,59.537,427.094z
		 M76.621,461.261c-3.237,2.426-6.116,5.305-8.542,8.542c-2.426-3.237-5.305-6.116-8.542-8.542c3.237-2.426,6.116-5.304,8.542-8.542
		C70.505,455.957,73.383,458.835,76.621,461.261z"/>
	
		<linearGradient id="SVGID_4_" gradientUnits="userSpaceOnUse" x1="-42.4636" y1="606.7272" x2="21.2464" y2="606.7272" gradientTransform="matrix(8.5419 0 0 -8.5419 369.5521 5438.8447)">
		<stop  offset="0" style="stop-color:#B24592"/>
		<stop  offset="1" style="stop-color:#F15F79"/>
	</linearGradient>
	<rect x="315.793" y="247.714" style="fill:url(#SVGID_4_);" width="17.084" height="17.084"/>
	
		<linearGradient id="SVGID_5_" gradientUnits="userSpaceOnUse" x1="-42.4636" y1="614.7272" x2="21.2464" y2="614.7272" gradientTransform="matrix(8.5419 0 0 -8.5419 369.5521 5438.8447)">
		<stop  offset="0" style="stop-color:#B24592"/>
		<stop  offset="1" style="stop-color:#F15F79"/>
	</linearGradient>
	<rect x="247.458" y="179.379" style="fill:url(#SVGID_5_);" width="17.084" height="17.084"/>
	
		<linearGradient id="SVGID_6_" gradientUnits="userSpaceOnUse" x1="-42.4636" y1="584.7272" x2="21.2464" y2="584.7272" gradientTransform="matrix(8.5419 0 0 -8.5419 369.5521 5438.8447)">
		<stop  offset="0" style="stop-color:#B24592"/>
		<stop  offset="1" style="stop-color:#F15F79"/>
	</linearGradient>
	<rect x="298.709" y="435.636" style="fill:url(#SVGID_6_);" width="17.084" height="17.084"/>
	
		<linearGradient id="SVGID_7_" gradientUnits="userSpaceOnUse" x1="-42.4636" y1="595.7272" x2="21.2464" y2="595.7272" gradientTransform="matrix(8.5419 0 0 -8.5419 369.5521 5438.8447)">
		<stop  offset="0" style="stop-color:#B24592"/>
		<stop  offset="1" style="stop-color:#F15F79"/>
	</linearGradient>
	<rect x="221.832" y="341.675" style="fill:url(#SVGID_7_);" width="17.084" height="17.084"/>
	
		<linearGradient id="SVGID_8_" gradientUnits="userSpaceOnUse" x1="-42.4636" y1="592.7272" x2="21.2464" y2="592.7272" gradientTransform="matrix(8.5419 0 0 -8.5419 369.5521 5438.8447)">
		<stop  offset="0" style="stop-color:#B24592"/>
		<stop  offset="1" style="stop-color:#F15F79"/>
	</linearGradient>
	<rect x="384.128" y="367.301" style="fill:url(#SVGID_8_);" width="17.084" height="17.084"/>
	
		<linearGradient id="SVGID_9_" gradientUnits="userSpaceOnUse" x1="-42.4636" y1="592.7272" x2="21.2464" y2="592.7272" gradientTransform="matrix(8.5419 0 0 -8.5419 369.5521 5438.8447)">
		<stop  offset="0" style="stop-color:#B24592"/>
		<stop  offset="1" style="stop-color:#F15F79"/>
	</linearGradient>
	<rect x="136.414" y="367.301" style="fill:url(#SVGID_9_);" width="17.084" height="17.084"/>
	
		<linearGradient id="SVGID_10_" gradientUnits="userSpaceOnUse" x1="-42.4636" y1="606.7272" x2="21.2464" y2="606.7272" gradientTransform="matrix(8.5419 0 0 -8.5419 369.5521 5438.8447)">
		<stop  offset="0" style="stop-color:#B24592"/>
		<stop  offset="1" style="stop-color:#F15F79"/>
	</linearGradient>
	<rect x="153.497" y="247.714" style="fill:url(#SVGID_10_);" width="17.084" height="17.084"/>
	
		<linearGradient id="SVGID_11_" gradientUnits="userSpaceOnUse" x1="-42.4636" y1="606.7272" x2="21.2464" y2="606.7272" gradientTransform="matrix(8.5419 0 0 -8.5419 369.5521 5438.8447)">
		<stop  offset="0" style="stop-color:#B24592"/>
		<stop  offset="1" style="stop-color:#F15F79"/>
	</linearGradient>
	<rect x="409.754" y="247.714" style="fill:url(#SVGID_11_);" width="17.084" height="17.084"/>
	
		<linearGradient id="SVGID_12_" gradientUnits="userSpaceOnUse" x1="-42.4636" y1="625.7272" x2="21.2464" y2="625.7272" gradientTransform="matrix(8.5419 0 0 -8.5419 369.5521 5438.8447)">
		<stop  offset="0" style="stop-color:#B24592"/>
		<stop  offset="1" style="stop-color:#F15F79"/>
	</linearGradient>
	<rect x="153.497" y="85.419" style="fill:url(#SVGID_12_);" width="17.084" height="17.084"/>
	
		<linearGradient id="SVGID_13_" gradientUnits="userSpaceOnUse" x1="-42.4636" y1="621.7272" x2="21.2464" y2="621.7272" gradientTransform="matrix(8.5419 0 0 -8.5419 369.5521 5438.8447)">
		<stop  offset="0" style="stop-color:#B24592"/>
		<stop  offset="1" style="stop-color:#F15F79"/>
	</linearGradient>
	<rect x="153.497" y="119.586" style="fill:url(#SVGID_13_);" width="17.084" height="17.084"/>
	
		<linearGradient id="SVGID_14_" gradientUnits="userSpaceOnUse" x1="-42.4636" y1="623.7272" x2="21.2464" y2="623.7272" gradientTransform="matrix(8.5419 0 0 -8.5419 369.5521 5438.8447)">
		<stop  offset="0" style="stop-color:#B24592"/>
		<stop  offset="1" style="stop-color:#F15F79"/>
	</linearGradient>
	<rect x="136.414" y="102.503" style="fill:url(#SVGID_14_);" width="17.084" height="17.084"/>
	
		<linearGradient id="SVGID_15_" gradientUnits="userSpaceOnUse" x1="-42.4636" y1="623.7272" x2="21.2464" y2="623.7272" gradientTransform="matrix(8.5419 0 0 -8.5419 369.5521 5438.8447)">
		<stop  offset="0" style="stop-color:#B24592"/>
		<stop  offset="1" style="stop-color:#F15F79"/>
	</linearGradient>
	<rect x="170.581" y="102.503" style="fill:url(#SVGID_15_);" width="17.084" height="17.084"/>
	
		<linearGradient id="SVGID_16_" gradientUnits="userSpaceOnUse" x1="-42.4636" y1="630.7272" x2="21.2464" y2="630.7272" gradientTransform="matrix(8.5419 0 0 -8.5419 369.5521 5438.8447)">
		<stop  offset="0" style="stop-color:#B24592"/>
		<stop  offset="1" style="stop-color:#F15F79"/>
	</linearGradient>
	<rect x="85.162" y="42.709" style="fill:url(#SVGID_16_);" width="17.084" height="17.084"/>
	
		<linearGradient id="SVGID_17_" gradientUnits="userSpaceOnUse" x1="-42.4636" y1="626.7272" x2="21.2464" y2="626.7272" gradientTransform="matrix(8.5419 0 0 -8.5419 369.5521 5438.8447)">
		<stop  offset="0" style="stop-color:#B24592"/>
		<stop  offset="1" style="stop-color:#F15F79"/>
	</linearGradient>
	<rect x="85.162" y="76.877" style="fill:url(#SVGID_17_);" width="17.084" height="17.084"/>
	
		<linearGradient id="SVGID_18_" gradientUnits="userSpaceOnUse" x1="-42.4636" y1="628.7272" x2="21.2464" y2="628.7272" gradientTransform="matrix(8.5419 0 0 -8.5419 369.5521 5438.8447)">
		<stop  offset="0" style="stop-color:#B24592"/>
		<stop  offset="1" style="stop-color:#F15F79"/>
	</linearGradient>
	<rect x="68.079" y="59.793" style="fill:url(#SVGID_18_);" width="17.084" height="17.084"/>
	
		<linearGradient id="SVGID_19_" gradientUnits="userSpaceOnUse" x1="-42.4636" y1="628.7272" x2="21.2464" y2="628.7272" gradientTransform="matrix(8.5419 0 0 -8.5419 369.5521 5438.8447)">
		<stop  offset="0" style="stop-color:#B24592"/>
		<stop  offset="1" style="stop-color:#F15F79"/>
	</linearGradient>
	<rect x="102.246" y="59.793" style="fill:url(#SVGID_19_);" width="17.084" height="17.084"/>
</g>
<g>
</g>
<g>
</g>
<g>
</g>
<g>
</g>
<g>
</g>
<g>
</g>
<g>
</g>
<g>
</g>
<g>
</g>
<g>
</g>
<g>
</g>
<g>
</g>
<g>
</g>
<g>
</g>
<g>
</g>
</svg>
