<?xml version="1.0" encoding="iso-8859-1"?>
<!-- Generator: Adobe Illustrator 19.0.0, SVG Export Plug-In . SVG Version: 6.00 Build 0)  -->
<svg version="1.1" id="Layer_1" xmlns="http://www.w3.org/2000/svg" xmlns:xlink="http://www.w3.org/1999/xlink" x="0px" y="0px"
	 viewBox="0 0 512 512" style="enable-background:new 0 0 512 512;" xml:space="preserve">
<path style="fill:#7F838C;" d="M256,91c-8.291,0-15-6.709-15-15V15c0-8.291,6.709-15,15-15c8.291,0,15,6.709,15,15v61
	C271,84.291,264.291,91,256,91z"/>
<path style="fill:#757982;" d="M271,76V15c0-8.291-6.709-15-15-15v91C264.291,91,271,84.291,271,76z"/>
<path style="fill:#C4CAD9;" d="M286,152h-60c-8.291,0-15-6.709-15-15v-30c0-24.814,20.186-46,45-46s45,21.186,45,46v30
	C301,145.291,294.291,152,286,152z"/>
<path style="fill:#B8BFCC;" d="M286,152c8.291,0,15-6.709,15-15v-30c0-24.814-20.186-46-45-46v91H286z"/>
<path style="fill:#E6F7FF;" d="M451,317c0-106.284-86.766-195-195-195c-108.179,0-195,88.645-195,195c0,106.284,86.766,195,195,195
	C364.179,512,451,423.355,451,317z"/>
<path style="fill:#CCE6FF;" d="M451,317c0-106.284-86.766-195-195-195v390C364.179,512,451,423.355,451,317z"/>
<path style="fill:#FFB3E7;" d="M503.599,92.5l-35.4-17.701l-17.699-35.4c-2.701-5.099-8.101-7.8-13.5-7.8s-10.8,2.701-13.5,7.8
	l-17.699,35.4l-35.4,17.701c-11.102,5.7-11.102,21.301,0,27.001l35.4,17.699l17.699,35.4c2.7,5.399,8.1,8.4,13.5,8.4
	s10.8-3.001,13.5-8.401l17.699-35.4l35.4-17.699C514.701,113.8,514.701,98.2,503.599,92.5z"/>
<path style="fill:#FF99E0;" d="M503.599,119.5l-35.4,17.699l-17.699,35.4c-2.7,5.4-8.1,8.401-13.5,8.401V31.599
	c5.4,0,10.8,2.701,13.5,7.8l17.699,35.4l35.4,17.701C514.701,98.2,514.701,113.8,503.599,119.5z"/>
<path style="fill:#B3F8FF;" d="M141.599,61.5l-35.4-17.701L88.5,8.399c-2.7-5.099-8.1-7.8-13.5-7.8S64.2,3.3,61.5,8.399
	l-17.699,35.4L8.401,61.5c-11.102,5.7-11.102,21.3,0,27l35.4,17.699l17.699,35.4c2.7,5.4,8.1,8.401,13.5,8.401
	s10.8-3.001,13.5-8.401l17.699-35.4l35.4-17.699C152.701,82.8,152.701,67.2,141.599,61.5z"/>
<path style="fill:#99F6FF;" d="M141.599,88.5l-35.4,17.699l-17.699,35.4C85.8,146.999,80.4,150,75,150V0.599
	c5.4,0,10.8,2.701,13.5,7.8l17.699,35.4l35.4,17.701C152.701,67.2,152.701,82.8,141.599,88.5z"/>
<path style="fill:#96E645;" d="M420.24,332h-59.636c-0.833,21.196-3.353,41.371-7.423,60h49.603
	C412.178,373.689,418.294,353.456,420.24,332z"/>
<path style="fill:#FFBC33;" d="M271,156.18V212h41.512C301.339,183.853,286.471,164.063,271,156.18z"/>
<path style="fill:#96E645;" d="M271,302h59.244c-0.958-21.881-3.763-42.019-8.201-60H271V302z"/>
<path style="fill:#FF80C0;" d="M323.518,467.394c23.203-10.459,43.63-26.01,59.661-45.394H344.84
	C339.027,439.164,331.872,454.52,323.518,467.394z"/>
<path style="fill:#B8BFCC;" d="M323.518,166.606c8.353,12.874,15.509,28.229,21.323,45.394h38.339
	C367.149,192.616,346.721,177.065,323.518,166.606z"/>
<path style="fill:#FFBC33;" d="M271,477.82c15.471-7.883,30.339-27.673,41.512-55.82H271V477.82z"/>
<path style="fill:#FF80C0;" d="M353.181,242c4.07,18.629,6.59,38.804,7.423,60h59.636c-1.946-21.456-8.062-41.689-17.455-60H353.181
	z"/>
<path style="fill:#51DAE6;" d="M271,392h51.042c4.438-17.981,7.244-38.119,8.201-60H271V392z"/>
<path style="fill:#5AF1FF;" d="M158.819,242h-49.603c-9.393,18.311-15.509,38.544-17.455,60h59.636
	C152.229,280.804,154.748,260.629,158.819,242z"/>
<path style="fill:#A0F0FF;" d="M128.82,422c16.031,19.384,36.458,34.935,59.661,45.394c-8.353-12.874-15.509-28.229-21.323-45.394
	H128.82z"/>
<g>
	<path style="fill:#F3B7E0;" d="M188.482,166.606c-23.203,10.459-43.63,26.01-59.661,45.394h38.339
		C172.973,194.836,180.128,179.48,188.482,166.606z"/>
	<path style="fill:#F3B7E0;" d="M151.396,332H91.76c1.946,21.456,8.062,41.689,17.455,60h49.603
		C154.748,373.371,152.229,353.196,151.396,332z"/>
</g>
<path style="fill:#FFDE33;" d="M181.756,302H241v-60h-51.042C185.519,259.981,182.714,280.119,181.756,302z"/>
<path style="fill:#C4CAD9;" d="M241,477.82V422h-41.512C210.661,450.147,225.529,469.937,241,477.82z"/>
<path style="fill:#D5DCEC;" d="M199.488,212H241v-55.82C225.529,164.063,210.661,183.853,199.488,212z"/>
<path style="fill:#5AF1FF;" d="M189.958,392H241v-60h-59.244C182.714,353.881,185.519,374.019,189.958,392z"/>
<g>
</g>
<g>
</g>
<g>
</g>
<g>
</g>
<g>
</g>
<g>
</g>
<g>
</g>
<g>
</g>
<g>
</g>
<g>
</g>
<g>
</g>
<g>
</g>
<g>
</g>
<g>
</g>
<g>
</g>
</svg>
